<?xml version="1.0" standalone="no"?>
<!DOCTYPE svg PUBLIC "-//W3C//DTD SVG 20010904//EN"
 "http://www.w3.org/TR/2001/REC-SVG-20010904/DTD/svg10.dtd">
<svg version="1.0" xmlns="http://www.w3.org/2000/svg"
 width="128.000000pt" height="128.000000pt" viewBox="0 0 128.000000 128.000000"
 preserveAspectRatio="xMidYMid meet">
<metadata>
Created by potrace 1.11, written by Peter Selinger 2001-2013
</metadata>
<g transform="translate(0.000000,128.000000) scale(0.100000,-0.100000)"
fill="#000000" stroke="none">
<path d="M0 640 l0 -640 640 0 640 0 0 640 0 640 -640 0 -640 0 0 -640z m660
390 c142 -47 197 -88 225 -168 31 -92 8 -224 -43 -251 -23 -12 -65 -14 -99 -5
-22 6 -23 10 -24 143 -1 75 -4 147 -8 161 -9 34 -46 39 -55 8 -3 -13 -6 -166
-6 -340 0 -264 -2 -318 -14 -318 -7 0 -42 11 -77 24 l-64 24 -3 385 -2 385 57
-15 c32 -8 83 -23 113 -33z m-200 -470 c0 -46 -2 -51 -27 -61 -131 -48 -163
-63 -160 -73 6 -20 81 -18 136 4 l52 20 -3 -47 -3 -48 -82 -3 c-191 -7 -320
75 -217 138 30 19 274 117 297 119 4 1 7 -22 7 -49z m532 -9 c88 -24 118 -44
118 -79 0 -39 -36 -59 -240 -137 -96 -36 -178 -69 -182 -71 -4 -3 -8 19 -8 48
l0 53 142 55 c78 30 143 61 146 68 8 26 -95 14 -189 -23 -50 -19 -93 -35 -95
-35 -2 0 -4 24 -4 54 l0 55 63 14 c86 21 171 20 249 -2z"/>
</g>
</svg>
